<svg width="12" height="16" viewBox="0 0 12 16" fill="none" xmlns="http://www.w3.org/2000/svg">
<path d="M6 0C3.93225 0 2.25 1.7944 2.25 4V6.4H1.5C1.10218 6.4 0.720644 6.56857 0.43934 6.86863C0.158035 7.16869 0 7.57565 0 8V14.4C0 14.8243 0.158035 15.2313 0.43934 15.5314C0.720644 15.8314 1.10218 16 1.5 16H10.5C10.8978 16 11.2794 15.8314 11.5607 15.5314C11.842 15.2313 12 14.8243 12 14.4V8C12 7.57565 11.842 7.16869 11.5607 6.86863C11.2794 6.56857 10.8978 6.4 10.5 6.4H9.75V4C9.75 1.7944 8.06775 0 6 0ZM3.75 4C3.75 2.6768 4.7595 1.6 6 1.6C7.2405 1.6 8.25 2.6768 8.25 4V6.4H3.75V4ZM6.75 12.5784V14.4H5.25V12.5784C4.98779 12.4182 4.77724 12.1771 4.64612 11.8867C4.515 11.5963 4.46946 11.2704 4.51551 10.9518C4.56156 10.6333 4.69704 10.3371 4.90407 10.1023C5.11111 9.86759 5.37999 9.70527 5.67525 9.6368C5.89456 9.58508 6.12196 9.58652 6.34068 9.64103C6.5594 9.69554 6.76386 9.80172 6.93899 9.95174C7.11411 10.1018 7.25543 10.2918 7.35253 10.5078C7.44963 10.7239 7.50002 10.9604 7.5 11.2C7.49957 11.4798 7.43002 11.7545 7.29835 11.9965C7.16668 12.2385 6.97754 12.4392 6.75 12.5784Z" fill="black" fill-opacity="0.37"/>
</svg>
